<?xml version="1.0" encoding="utf-8"?><svg version="1.1" id="Layer_1" xmlns="http://www.w3.org/2000/svg" xmlns:xlink="http://www.w3.org/1999/xlink" x="0px" y="0px" viewBox="0 0 122.88 122.88" style="enable-background:new 0 0 122.88 122.88" xml:space="preserve"><style type="text/css">.st0{fill-rule:evenodd;clip-rule:evenodd;}</style><g><path class="st0" d="M74.25,36.35c11.65-12.58,13.62-1.15,22.19,1.25c1.04,0.29,1.81,0.36,1.74,0.85 c-0.75,4.93-2.36,5.86-4.15,5.91c-1.98,0.05-3.6,0.02-4.79,0.59c-1.52,0.72-2.61,1.65-3.42,2.74l-12.18-6.22 C74.02,40.03,74.24,38.33,74.25,36.35L74.25,36.35z M29.38,22.92l27,27.01c6.84-0.04,12.83-0.63,15.83-5.21l12.34,5.34 c-2.38,6.33,0.33,15.5-8.13,19.9L99.96,93.5c7.25-8.69,11.6-19.87,11.6-32.06c0-27.67-22.45-50.12-50.12-50.12 C49.24,11.32,38.06,15.68,29.38,22.92L29.38,22.92L29.38,22.92z M91.59,101.47L73.42,83.3c0.1,1.79,0.3,3.63,0.54,5.4l1.41-0.15 c2.54-0.27,2.51,2.04,1.31,3.52l-7.5,0c-0.36-4.66-1.07-9.61-1.36-14.37l-6.82-6.81c-1.14-0.24-2.36-0.64-3.8-1.19 c-2.08-0.79-10.68-5.93-13.01-3.84c-1.31,1.18,2.19,5.9-6.46,14.27l0.15,8.28h1.46c2.22,0,2.1,2.22,1.29,3.66h-4.27 c-2.84,0-2.25,0.3-2.28-2.69l-0.07-6.44l-0.46-3.99c0.01-2.38,1.71-4.91,0.08-10.57c-1.08-3.75-0.99-6.73-3.81-7.15 c-2.62,5.28-5.12,10.11-7.32,15.64c-0.15,0.37-0.35,0.73-0.53,1.09c-2.51,5.77-3.56,1.44-2.15-1.99l0.94-2.29 c1.2-4.83,4.59-13.91,7.78-17.28c3.3-3.49,7.54-5.11,12.1-5.86L21.41,31.29c-6.33,8.39-10.09,18.83-10.09,30.15 c0,27.67,22.45,50.12,50.12,50.12C72.76,111.56,83.2,107.8,91.59,101.47L91.59,101.47z M61.44,0c33.93,0,61.44,27.51,61.44,61.44 s-27.51,61.44-61.44,61.44S0,95.37,0,61.44S27.51,0,61.44,0L61.44,0z"/></g></svg>